<?xml version="1.0" encoding="UTF-8" standalone="no"?>
<svg width="1242" height="2436" viewBox="0 0 1242 2436" fill="none" xmlns="http://www.w3.org/2000/svg">
  <!-- Background -->
  <rect width="1242" height="2436" fill="#FFF5F5"/>
  
  <!-- Chef Icon -->
  <g transform="translate(621, 1118) scale(0.8)">
    <!-- Chef Hat -->
    <path d="M0 -300C161.385 -300 292 -169.385 292 -8C292 153.385 161.385 284 0 284C-161.385 284 -292 153.385 -292 -8C-292 -169.385 -161.385 -300 0 -300Z" fill="#FF6B6B"/>
    
    <!-- Face -->
    <circle cx="0" cy="42" r="160" fill="#FFE0BD"/>
    
    <!-- Chef Hat Top -->
    <path d="M0 -220C116.901 -220 212 -124.901 212 -8H-212C-212 -124.901 -116.901 -220 0 -220Z" fill="#FF6B6B"/>
    
    <!-- Mustache -->
    <path d="M-60 82C-60 82 -40 102 0 102C40 102 60 82 60 82" stroke="#2C1810" stroke-width="12" stroke-linecap="round"/>
    
    <!-- Eyes -->
    <circle cx="-60" cy="42" r="8" fill="#2C1810"/>
    <circle cx="60" cy="42" r="8" fill="#2C1810"/>
    
    <!-- Rosy Cheeks -->
    <circle cx="-90" cy="62" r="20" fill="#FFB6B6" opacity="0.5"/>
    <circle cx="90" cy="62" r="20" fill="#FFB6B6" opacity="0.5"/>
  </g>
  
  <!-- App Name -->
  <text x="621" y="1500" text-anchor="middle" font-family="Arial" font-size="72" font-weight="bold" fill="#2C1810">Kitchen Chef</text>
</svg> 